<?xml version="1.0" encoding="utf-8"?>
<!-- Svg Vector Icons : http://www.onlinewebfonts.com/icon -->
<!DOCTYPE svg PUBLIC "-//W3C//DTD SVG 1.1//EN" "http://www.w3.org/Graphics/SVG/1.1/DTD/svg11.dtd">
<svg version="1.1" xmlns="http://www.w3.org/2000/svg" xmlns:xlink="http://www.w3.org/1999/xlink" x="0px" y="0px" viewBox="0 0 1000 1000" enable-background="new 0 0 1000 1000" xml:space="preserve">
<metadata> Svg Vector Icons : http://www.onlinewebfonts.com/icon </metadata>
<g><g transform="translate(0.000000,511.000000) scale(0.100000,-0.100000)"><path fill="#999" d="M6903.4,5009.6l-228.8-67.6l9.9-252.6c11.9-248.7,10-252.6-37.8-296.4c-117.4-103.4-119.4-103.4-364,39.8L6057.9,4564L5882.9,4389l-177.1-175.1l143.2-224.8l145.2-224.8l-53.7-107.4l-51.7-105.4h-268.6h-266.6l-19.9-73.6c-10-41.8-33.8-133.3-51.7-204.9s-35.8-143.2-41.8-161.1c-6-23.9,49.7-61.7,228.8-153.2l234.7-123.3l11.9-103.4c4-57.7,6-111.4,2-117.4c-4-8-95.5-63.6-202.9-125.3c-296.4-169.1-274.5-123.3-195-389.9l67.6-228.8l276.5,8l278.5,6l49.7-85.5l49.7-83.5l-137.3-238.7l-139.2-236.7l105.4-109.4c59.7-59.7,141.3-135.3,181-169.1l75.6-59.7l230.7,145.2l230.8,143.2l87.5-41.8l85.6-41.8l6-284.5l6-284.5l218.8-53.7c121.3-29.8,228.8-53.7,240.7-55.7c9.9,0,75.6,107.4,145.2,238.7c103.4,198.9,131.3,238.7,169.1,238.7c25.9,0,71.6,4,103.4,9.9c55.7,11.9,61.7,4,195-228.8c73.6-131.3,145.2-238.7,159.1-238.7c11.9,0,115.4,27.8,230.8,59.7c115.4,33.8,212.9,59.7,214.8,59.7c4,0,4,127.3,2,282.5l-8,284.5l85.5,45.7l83.6,47.8l224.8-131.3c125.3-71.6,234.7-131.3,246.7-131.3c37.8,0,346.1,338.2,330.2,364c-7.9,11.9-73.6,115.4-145.2,228.8l-133.3,206.9l51.7,97.5l51.7,97.5h272.5h272.5l19.9,75.6c9.9,39.8,33.8,131.3,51.7,202.9c17.9,71.6,35.8,143.2,41.8,163.1c8,23.9-45.7,61.7-230.7,157.1l-238.7,127.3v111.4v111.4l218.8,125.3c121.3,67.6,224.8,131.3,228.8,141.2c6,8-17.9,119.4-53.7,244.7l-65.6,230.8l-268.6-11.9l-268.6-11.9l-55.7,93.5l-55.7,93.5l133.3,228.8l133.3,228.8l-127.3,129.3c-69.6,69.6-151.2,147.2-183,169.1l-53.7,37.8l-208.9-129.3c-115.4-71.6-216.8-131.3-226.8-131.3c-7.9,0-57.7,23.9-109.4,51.7l-91.5,51.7v262.6v262.6l-222.8,53.7c-123.3,29.8-234.7,53.7-246.7,53.7c-10,0-73.6-103.4-139.3-228.8l-117.4-228.8H7530h-121.3l-125.4,218.8c-67.6,119.4-129.3,220.8-137.2,224.8C7138.1,5073.3,7028.7,5047.4,6903.4,5009.6z M7802.5,3828c485.4-99.5,871.3-574.9,871.3-1072.2c0-485.4-356.1-937-835.5-1064.3c-354.1-93.5-769.9,21.9-1032.4,286.5c-218.8,220.8-328.2,477.4-328.2,777.8c0,300.4,109.4,559,326.3,775.8C7064.5,3792.2,7438.5,3903.6,7802.5,3828z"/><path fill="#999" d="M3123.7,1749.2c-57.7-248.7-97.5-374-117.4-383.9c-17.9-9.9-97.5-31.8-177-53.7l-143.2-35.8l-260.6,272.5c-143.2,149.2-270.5,272.5-280.5,272.5c-25.9,0-608.7-334.2-620.6-356.1c-6-8,39.8-177,99.5-380l109.4-364l-117.4-119.4L1496.5,482l-374,111.4c-206.9,59.7-376,109.4-378,107.4c0-2-83.5-145.2-183-318.3l-183-314.3L667-214.2l288.4-282.5l-45.8-157.2L865.9-813l-378-91.5l-378-89.5l-6-370l-4-370l391.9-99.5l391.9-97.5l39.8-155.2l37.8-157.1l-292.4-280.5l-292.4-280.5l173.1-298.4c93.5-163.1,179-306.4,187-316.3c9.9-7.9,193,35.8,407.8,97.5l391.9,113.4l97.5-95.5c53.7-53.7,97.5-109.4,97.5-127.3c0-15.9-49.7-195-109.4-397.9s-101.5-374-93.5-381.9c21.9-19.9,602.8-354.1,616.7-354.1c8,0,141.2,133.3,296.4,296.4l282.5,294.4l145.2-37.8l147.2-39.8l99.5-401.8l99.5-399.8l368-6l368-4l95.5,405.8l97.5,405.8l147.2,37.8l147.2,39.8l284.5-294.4c157.2-163.1,290.4-296.4,296.4-296.4c13.9,0,594.8,336.2,614.7,356.1c9.9,7.9-33.8,181-93.5,385.9s-109.4,383.9-109.4,397.9c0,13.9,43.8,69.6,97.5,121.4l99.5,97.5l389.9-115.4c216.8-63.7,397.9-105.4,407.8-97.5c8,10,93.5,153.2,189,316.3l173.1,298.4l-292.4,282.5l-294.4,282.5l37.8,141.2c19.9,75.6,39.8,147.2,45.8,155.2c6,10,185,59.7,395.9,113.4l381.9,93.5l-4,372l-6,370l-378,89.5l-378,91.5l-41.8,163.1l-43.8,163.1l288.4,276.5L6788,66.2l-185,314.3c-99.5,175.1-183,318.3-185,318.3c-2,2-171.1-45.8-376-107.4L5666,482l-117.4,117.4l-117.4,117.4l111.4,376c59.7,204.9,107.4,376,103.4,378c-4,4-147.2,85.5-318.3,185l-314.3,181L4747,1556.2l-266.6-280.5l-153.2,37.8c-85.5,21.9-165.1,47.7-179,59.7c-11.9,9.9-61.7,183-109.4,383.9l-87.5,362.1h-370h-370L3123.7,1749.2z M4026.9,199.5c306.3-89.5,519.2-218.8,740-453.6c175.1-183,284.5-364,370-610.7c61.7-181,63.7-200.9,65.6-497.3c0-268.6-6-328.2-45.8-457.5c-228.8-726.1-841.5-1181.6-1585.5-1177.7c-939,4-1679,799.7-1615.3,1732.7c53.7,771.8,630.6,1396.5,1396.5,1513.8C3541.5,277.1,3831.9,255.2,4026.9,199.5z"/></g></g>
</svg>